<mxfile host="Electron" agent="Mozilla/5.0 (Windows NT 10.0; Win64; x64) AppleWebKit/537.36 (KHTML, like Gecko) draw.io/25.0.1 Chrome/128.0.6613.186 Electron/32.2.6 Safari/537.36" version="25.0.1">
  <diagram id="C5RBs43oDa-KdzZeNtuy" name="Page-1">
    <mxGraphModel dx="1193" dy="2000" grid="1" gridSize="10" guides="1" tooltips="1" connect="1" arrows="1" fold="1" page="1" pageScale="1" pageWidth="827" pageHeight="1169" math="0" shadow="0">
      <root>
        <mxCell id="WIyWlLk6GJQsqaUBKTNV-0" />
        <mxCell id="WIyWlLk6GJQsqaUBKTNV-1" parent="WIyWlLk6GJQsqaUBKTNV-0" />
        <mxCell id="_R9ojxDaMG_nAXajCXDd-2" value="" style="edgeStyle=orthogonalEdgeStyle;rounded=0;orthogonalLoop=1;jettySize=auto;html=1;" parent="WIyWlLk6GJQsqaUBKTNV-1" source="_R9ojxDaMG_nAXajCXDd-0" target="_R9ojxDaMG_nAXajCXDd-1" edge="1">
          <mxGeometry relative="1" as="geometry" />
        </mxCell>
        <mxCell id="_R9ojxDaMG_nAXajCXDd-0" value="начало" style="strokeWidth=2;html=1;shape=mxgraph.flowchart.start_2;whiteSpace=wrap;" parent="WIyWlLk6GJQsqaUBKTNV-1" vertex="1">
          <mxGeometry x="320" width="160" height="80" as="geometry" />
        </mxCell>
        <mxCell id="_R9ojxDaMG_nAXajCXDd-4" value="" style="edgeStyle=orthogonalEdgeStyle;rounded=0;orthogonalLoop=1;jettySize=auto;html=1;" parent="WIyWlLk6GJQsqaUBKTNV-1" source="_R9ojxDaMG_nAXajCXDd-1" edge="1">
          <mxGeometry relative="1" as="geometry">
            <mxPoint x="400" y="220" as="targetPoint" />
          </mxGeometry>
        </mxCell>
        <mxCell id="_R9ojxDaMG_nAXajCXDd-1" value="ввод K" style="shape=parallelogram;html=1;strokeWidth=2;perimeter=parallelogramPerimeter;whiteSpace=wrap;rounded=1;arcSize=12;size=0.23;" parent="WIyWlLk6GJQsqaUBKTNV-1" vertex="1">
          <mxGeometry x="320" y="120" width="160" height="60" as="geometry" />
        </mxCell>
        <mxCell id="ZS0cXaMff4ZHQ3xIGe5S-0" value="" style="edgeStyle=orthogonalEdgeStyle;rounded=0;orthogonalLoop=1;jettySize=auto;html=1;" edge="1" parent="WIyWlLk6GJQsqaUBKTNV-1" source="_R9ojxDaMG_nAXajCXDd-7" target="_R9ojxDaMG_nAXajCXDd-84">
          <mxGeometry relative="1" as="geometry" />
        </mxCell>
        <mxCell id="ZS0cXaMff4ZHQ3xIGe5S-1" value="да" style="edgeLabel;html=1;align=center;verticalAlign=middle;resizable=0;points=[];" vertex="1" connectable="0" parent="ZS0cXaMff4ZHQ3xIGe5S-0">
          <mxGeometry x="-0.0868" relative="1" as="geometry">
            <mxPoint as="offset" />
          </mxGeometry>
        </mxCell>
        <mxCell id="ZS0cXaMff4ZHQ3xIGe5S-3" value="" style="edgeStyle=orthogonalEdgeStyle;rounded=0;orthogonalLoop=1;jettySize=auto;html=1;" edge="1" parent="WIyWlLk6GJQsqaUBKTNV-1" source="_R9ojxDaMG_nAXajCXDd-7" target="ZS0cXaMff4ZHQ3xIGe5S-2">
          <mxGeometry relative="1" as="geometry" />
        </mxCell>
        <mxCell id="ZS0cXaMff4ZHQ3xIGe5S-4" value="нет" style="edgeLabel;html=1;align=center;verticalAlign=middle;resizable=0;points=[];" vertex="1" connectable="0" parent="ZS0cXaMff4ZHQ3xIGe5S-3">
          <mxGeometry x="-0.1556" y="-1" relative="1" as="geometry">
            <mxPoint y="-1" as="offset" />
          </mxGeometry>
        </mxCell>
        <mxCell id="_R9ojxDaMG_nAXajCXDd-7" value="K = 1" style="strokeWidth=2;html=1;shape=mxgraph.flowchart.decision;whiteSpace=wrap;" parent="WIyWlLk6GJQsqaUBKTNV-1" vertex="1">
          <mxGeometry x="320" y="220" width="160" height="60" as="geometry" />
        </mxCell>
        <mxCell id="_R9ojxDaMG_nAXajCXDd-84" value="вывод&amp;nbsp;&lt;span style=&quot;&quot; lang=&quot;RU&quot;&gt;&lt;font style=&quot;&quot;&gt;&lt;font face=&quot;Helvetica&quot;&gt;мы нашли&amp;nbsp;&lt;/font&gt;&lt;/font&gt;&lt;/span&gt;&lt;div&gt;&lt;span style=&quot;&quot; lang=&quot;RU&quot;&gt;&lt;font style=&quot;&quot;&gt;&lt;font face=&quot;Helvetica&quot;&gt;1 гриб в &lt;/font&gt;&lt;font face=&quot;Helvetica&quot;&gt;лесу&lt;/font&gt;&lt;/font&gt;&lt;/span&gt;&lt;font face=&quot;Helvetica&quot;&gt;&amp;nbsp;&lt;/font&gt;&lt;/div&gt;" style="shape=parallelogram;html=1;strokeWidth=2;perimeter=parallelogramPerimeter;whiteSpace=wrap;rounded=1;arcSize=12;size=0.23;" parent="WIyWlLk6GJQsqaUBKTNV-1" vertex="1">
          <mxGeometry x="320" y="330" width="160" height="100" as="geometry" />
        </mxCell>
        <mxCell id="_R9ojxDaMG_nAXajCXDd-86" value="конец" style="strokeWidth=2;html=1;shape=mxgraph.flowchart.start_2;whiteSpace=wrap;" parent="WIyWlLk6GJQsqaUBKTNV-1" vertex="1">
          <mxGeometry x="520" y="490" width="160" height="80" as="geometry" />
        </mxCell>
        <mxCell id="ZS0cXaMff4ZHQ3xIGe5S-6" value="" style="edgeStyle=orthogonalEdgeStyle;rounded=0;orthogonalLoop=1;jettySize=auto;html=1;" edge="1" parent="WIyWlLk6GJQsqaUBKTNV-1" source="ZS0cXaMff4ZHQ3xIGe5S-2" target="ZS0cXaMff4ZHQ3xIGe5S-5">
          <mxGeometry relative="1" as="geometry" />
        </mxCell>
        <mxCell id="ZS0cXaMff4ZHQ3xIGe5S-7" value="да" style="edgeLabel;html=1;align=center;verticalAlign=middle;resizable=0;points=[];" vertex="1" connectable="0" parent="ZS0cXaMff4ZHQ3xIGe5S-6">
          <mxGeometry x="-0.2203" y="-1" relative="1" as="geometry">
            <mxPoint y="-1" as="offset" />
          </mxGeometry>
        </mxCell>
        <mxCell id="ZS0cXaMff4ZHQ3xIGe5S-18" value="" style="edgeStyle=orthogonalEdgeStyle;rounded=0;orthogonalLoop=1;jettySize=auto;html=1;" edge="1" parent="WIyWlLk6GJQsqaUBKTNV-1" source="ZS0cXaMff4ZHQ3xIGe5S-2" target="ZS0cXaMff4ZHQ3xIGe5S-17">
          <mxGeometry relative="1" as="geometry" />
        </mxCell>
        <mxCell id="ZS0cXaMff4ZHQ3xIGe5S-20" value="нет" style="edgeLabel;html=1;align=center;verticalAlign=middle;resizable=0;points=[];" vertex="1" connectable="0" parent="ZS0cXaMff4ZHQ3xIGe5S-18">
          <mxGeometry x="0.004" relative="1" as="geometry">
            <mxPoint as="offset" />
          </mxGeometry>
        </mxCell>
        <mxCell id="ZS0cXaMff4ZHQ3xIGe5S-2" value="К &amp;lt;= 4" style="strokeWidth=2;html=1;shape=mxgraph.flowchart.decision;whiteSpace=wrap;" vertex="1" parent="WIyWlLk6GJQsqaUBKTNV-1">
          <mxGeometry x="520" y="220" width="160" height="60" as="geometry" />
        </mxCell>
        <mxCell id="ZS0cXaMff4ZHQ3xIGe5S-23" style="edgeStyle=orthogonalEdgeStyle;rounded=0;orthogonalLoop=1;jettySize=auto;html=1;" edge="1" parent="WIyWlLk6GJQsqaUBKTNV-1" source="ZS0cXaMff4ZHQ3xIGe5S-5">
          <mxGeometry relative="1" as="geometry">
            <mxPoint x="600" y="490" as="targetPoint" />
            <Array as="points">
              <mxPoint x="800" y="450" />
              <mxPoint x="600" y="450" />
            </Array>
          </mxGeometry>
        </mxCell>
        <mxCell id="ZS0cXaMff4ZHQ3xIGe5S-5" value="вывод&amp;nbsp;&lt;span style=&quot;&quot; lang=&quot;RU&quot;&gt;&lt;font style=&quot;&quot;&gt;&lt;font face=&quot;Helvetica&quot;&gt;мы нашли&amp;nbsp;&lt;/font&gt;&lt;/font&gt;&lt;/span&gt;&lt;div&gt;&lt;span style=&quot;&quot; lang=&quot;RU&quot;&gt;&lt;font style=&quot;&quot;&gt;&lt;font face=&quot;Helvetica&quot;&gt;K гриб в &lt;/font&gt;&lt;font face=&quot;Helvetica&quot;&gt;лесу&lt;/font&gt;&lt;/font&gt;&lt;/span&gt;&lt;font face=&quot;Helvetica&quot;&gt;&amp;nbsp;&lt;/font&gt;&lt;/div&gt;" style="shape=parallelogram;html=1;strokeWidth=2;perimeter=parallelogramPerimeter;whiteSpace=wrap;rounded=1;arcSize=12;size=0.23;" vertex="1" parent="WIyWlLk6GJQsqaUBKTNV-1">
          <mxGeometry x="720" y="200" width="160" height="100" as="geometry" />
        </mxCell>
        <mxCell id="ZS0cXaMff4ZHQ3xIGe5S-17" value="вывод&amp;nbsp;&lt;span style=&quot;&quot; lang=&quot;RU&quot;&gt;&lt;font style=&quot;&quot;&gt;&lt;font face=&quot;Helvetica&quot;&gt;мы нашли&amp;nbsp;&lt;/font&gt;&lt;/font&gt;&lt;/span&gt;&lt;div&gt;&lt;span style=&quot;&quot; lang=&quot;RU&quot;&gt;&lt;font style=&quot;&quot;&gt;&lt;font face=&quot;Helvetica&quot;&gt;K грибов в &lt;/font&gt;&lt;font face=&quot;Helvetica&quot;&gt;лесу&lt;/font&gt;&lt;/font&gt;&lt;/span&gt;&lt;font face=&quot;Helvetica&quot;&gt;&amp;nbsp;&lt;/font&gt;&lt;/div&gt;" style="shape=parallelogram;html=1;strokeWidth=2;perimeter=parallelogramPerimeter;whiteSpace=wrap;rounded=1;arcSize=12;size=0.23;" vertex="1" parent="WIyWlLk6GJQsqaUBKTNV-1">
          <mxGeometry x="520" y="330" width="160" height="100" as="geometry" />
        </mxCell>
        <mxCell id="ZS0cXaMff4ZHQ3xIGe5S-21" style="edgeStyle=orthogonalEdgeStyle;rounded=0;orthogonalLoop=1;jettySize=auto;html=1;entryX=0.5;entryY=0;entryDx=0;entryDy=0;entryPerimeter=0;" edge="1" parent="WIyWlLk6GJQsqaUBKTNV-1" source="ZS0cXaMff4ZHQ3xIGe5S-17" target="_R9ojxDaMG_nAXajCXDd-86">
          <mxGeometry relative="1" as="geometry" />
        </mxCell>
        <mxCell id="ZS0cXaMff4ZHQ3xIGe5S-22" style="edgeStyle=orthogonalEdgeStyle;rounded=0;orthogonalLoop=1;jettySize=auto;html=1;entryX=0.5;entryY=0;entryDx=0;entryDy=0;entryPerimeter=0;" edge="1" parent="WIyWlLk6GJQsqaUBKTNV-1" source="_R9ojxDaMG_nAXajCXDd-84" target="_R9ojxDaMG_nAXajCXDd-86">
          <mxGeometry relative="1" as="geometry">
            <Array as="points">
              <mxPoint x="400" y="450" />
              <mxPoint x="600" y="450" />
            </Array>
          </mxGeometry>
        </mxCell>
      </root>
    </mxGraphModel>
  </diagram>
</mxfile>
